 <svg  version="1.0" xmlns="http://www.w3.org/2000/svg"  width="200.000000pt" height="114.000000pt" viewBox="0 0 200.000000 114.000000"  preserveAspectRatio="xMidYMid meet">  <g transform="translate(0.000000,114.000000) scale(0.100000,-0.100000)" fill="#ffffff" stroke="none"> <path d="M800 756 l0 -325 153 98 c83 53 198 126 255 161 91 56 119 80 94 80 -10 0 -450 276 -473 296 -8 8 -19 14 -22 14 -4 0 -7 -146 -7 -324z m80 236 l22 -18 -26 -17 c-31 -21 -33 -43 -6 -72 l20 -21 -29 -22 -29 -21 -7 63 c-8 73 0 126 20 126 7 0 23 -8 35 -18z m141 -134 c131 -83 146 -100 112 -130 -45 -39 -248 -158 -260 -154 -22 9 -11 19 104 92 142 89 142 91 86 125 -130 79 -203 131 -198 139 11 18 26 11 156 -72z m-101 -53 c29 -19 56 -35 61 -35 23 0 4 -20 -46 -51 -57 -34 -77 -59 -48 -59 13 0 9 -8 -15 -33 -27 -28 -30 -36 -20 -50 7 -9 24 -20 38 -25 l25 -9 -35 -22 c-45 -27 -47 -27 -55 10 -11 49 4 159 20 153 18 -7 30 53 21 112 -3 24 -4 44 -2 44 2 0 27 -16 56 -35z m315 -37 c6 -6 -1 -18 -20 -34 -39 -31 -45 -30 -43 9 1 18 -5 43 -12 56 l-12 24 38 -23 c22 -13 44 -27 49 -32z m-201 3 c16 -18 16 -20 -6 -35 -30 -21 -41 -20 -28 3 5 11 7 27 4 35 -8 22 9 20 30 -3z"/> <path d="M690 755 l0 -276 45 31 c40 28 45 35 45 70 0 21 -4 42 -10 45 -6 4 -10 60 -10 136 0 79 4 129 10 129 6 0 10 18 10 39 0 39 -19 62 -77 95 -10 6 -13 -51 -13 -269z m59 154 c-14 -28 -29 -23 -29 9 0 37 11 48 27 26 9 -12 9 -22 2 -35z m-2 -302 c7 -15 7 -29 1 -40 -16 -29 -28 -19 -28 23 0 45 11 52 27 17z"/> <path d="M105 225 c0 -82 2 -95 17 -95 14 0 16 7 11 35 -6 34 -5 35 29 35 30 0 38 -5 54 -35 13 -25 25 -35 42 -35 24 0 24 0 -7 35 l-30 35 24 24 c31 31 31 41 0 71 -20 21 -34 25 -82 25 l-58 0 0 -95z m125 50 c20 -25 -5 -45 -56 -45 -42 0 -44 1 -44 30 0 29 2 30 44 30 26 0 48 -6 56 -15z"/> <path d="M345 225 l0 -95 66 0 c91 0 127 34 89 83 -17 22 -18 26 -5 37 20 17 19 26 -5 50 -16 16 -33 20 -82 20 l-63 0 0 -95z m130 55 c13 -21 -17 -40 -61 -40 -40 0 -44 2 -44 25 0 23 3 25 49 25 28 0 53 -5 56 -10z m9 -81 c5 -4 6 -15 3 -23 -5 -12 -21 -16 -62 -16 -51 0 -55 2 -55 23 0 13 2 26 5 29 8 8 98 -3 109 -13z"/> <path d="M585 225 c0 -80 3 -95 16 -95 13 0 15 10 11 59 -6 83 -1 89 36 37 18 -25 36 -46 40 -46 4 0 21 20 37 45 17 24 33 45 36 45 4 0 4 -31 1 -70 -4 -60 -2 -70 12 -70 14 0 16 14 16 95 0 113 -10 120 -61 45 -19 -27 -37 -50 -40 -50 -4 0 -22 22 -40 50 -52 77 -64 68 -64 -45z"/> <path d="M1002 304 c-24 -17 -29 -56 -9 -72 7 -6 32 -15 56 -21 57 -13 72 -28 47 -47 -25 -18 -57 -18 -82 1 -24 18 -44 19 -44 1 0 -20 51 -38 95 -34 28 2 44 11 58 30 20 27 20 28 2 48 -10 11 -23 20 -29 20 -6 0 -28 5 -48 11 -27 7 -38 16 -38 28 0 27 46 36 76 16 23 -15 44 -13 44 4 0 12 -48 31 -78 31 -15 0 -38 -7 -50 -16z"/> <path d="M1227 290 c4 -15 0 -20 -16 -20 -12 0 -21 -6 -21 -15 0 -10 7 -15 18 -13 14 3 17 -5 17 -55 0 -49 3 -57 18 -57 17 0 19 7 15 57 -3 55 -2 57 21 58 13 0 26 6 28 13 3 8 -6 12 -27 12 -27 0 -30 3 -25 20 5 15 2 20 -13 20 -15 0 -19 -5 -15 -20z"/> <path d="M1379 252 c-15 -13 -22 -30 -22 -52 0 -43 32 -70 85 -70 44 0 88 35 88 70 0 12 -11 32 -25 45 -30 31 -92 34 -126 7z m105 -21 c23 -26 17 -52 -17 -71 -24 -13 -30 -13 -54 0 -34 19 -40 45 -17 71 22 24 66 24 88 0z"/> <path d="M1600 200 c0 -56 3 -70 15 -70 11 0 15 12 15 50 0 53 7 62 53 64 11 1 22 7 25 14 5 15 -54 17 -63 2 -3 -5 -11 -10 -16 -10 -6 0 -7 5 -4 10 3 6 -1 10 -9 10 -13 0 -16 -13 -16 -70z"/> <path d="M1772 254 c-31 -21 -31 -87 0 -108 34 -24 128 -20 128 6 0 5 -18 7 -43 3 -35 -5 -47 -3 -67 14 l-25 20 73 1 c65 0 72 2 72 20 0 52 -87 80 -138 44z m96 -16 c22 -22 13 -28 -43 -28 -56 0 -69 11 -37 29 23 14 65 14 80 -1z"/> </g> </svg> 